<svg xmlns="http://www.w3.org/2000/svg" viewBox="0 0 171.24 160.88"><defs><style>.cls-1{fill:#f7931e;}.cls-2{fill:#fff;}.cls-3{fill:#103552;}.cls-4{fill:rgb(149 214 255);}</style></defs><g id="Layer_2" data-name="Layer 2"><g id="OBJECTS"><path class="cls-1" d="M1,159.38a83.15,83.15,0,1,1,166.29,0"/><rect class="cls-2" x="52.72" y="16" width="15.83" height="143.38"/><path class="cls-3" d="M70.05,160.88H51.22V14.5H70.05Zm-15.83-3H67.05V17.5H54.22Z"/><rect class="cls-2" x="125.72" y="16" width="15.83" height="143.38"/><path class="cls-3" d="M143.05,160.88H124.22V14.5h18.83Zm-15.83-3h12.83V17.5H127.22Z"/><rect class="cls-4" x="125.72" y="30.67" width="9.33" height="6"/><rect class="cls-4" x="59.22" y="30.67" width="9.33" height="6"/><rect class="cls-4" x="125.72" y="41.92" width="9.33" height="6"/><rect class="cls-4" x="125.72" y="53.17" width="9.33" height="6"/><rect class="cls-4" x="125.72" y="64.42" width="9.33" height="6"/><rect class="cls-4" x="125.72" y="75.67" width="9.33" height="6"/><rect class="cls-4" x="125.72" y="86.92" width="9.33" height="6"/><rect class="cls-4" x="125.72" y="98.17" width="9.33" height="6"/><rect class="cls-4" x="125.72" y="109.42" width="9.33" height="6"/><rect class="cls-4" x="125.72" y="120.67" width="9.33" height="6"/><rect class="cls-4" x="125.72" y="131.92" width="9.33" height="6"/><rect class="cls-4" x="125.72" y="143.17" width="9.33" height="6"/><rect class="cls-2" x="68.55" y="1.5" width="57.17" height="157.88"/><path class="cls-3" d="M127.22,160.88H67.05V0h60.17Zm-57.17-3h54.17V3H70.05Z"/><rect class="cls-4" x="1.27" y="82.2" width="148.55" height="2.82" transform="translate(159.15 8.07) rotate(90)"/><rect class="cls-4" x="8.46" y="82.2" width="148.55" height="2.82" transform="translate(166.35 0.87) rotate(90)"/><rect class="cls-4" x="15.66" y="82.2" width="148.55" height="2.82" transform="translate(173.54 -6.33) rotate(90)"/><rect class="cls-4" x="22.86" y="82.2" width="148.55" height="2.82" transform="translate(180.74 -13.53) rotate(90)"/><rect class="cls-4" x="30.06" y="82.2" width="148.55" height="2.82" transform="translate(187.94 -20.72) rotate(90)"/><rect class="cls-4" x="37.25" y="82.2" width="148.55" height="2.82" transform="translate(195.14 -27.92) rotate(90)"/><rect class="cls-4" x="44.45" y="82.2" width="148.55" height="2.82" transform="translate(202.33 -35.12) rotate(90)"/><rect class="cls-2" x="26.22" y="38.75" width="62" height="120.63"/><rect class="cls-4" x="45.88" y="146.33" width="22.67" height="13.04"/><rect class="cls-4" x="26.22" y="55.33" width="24.33" height="6"/><rect class="cls-4" x="26.22" y="67.67" width="24.33" height="6"/><rect class="cls-4" x="26.22" y="80" width="24.33" height="6"/><rect class="cls-4" x="26.22" y="92.33" width="24.33" height="6"/><rect class="cls-4" x="26.22" y="104.67" width="24.33" height="6"/><rect class="cls-4" x="26.22" y="117" width="24.33" height="6"/><rect class="cls-4" x="26.22" y="129.33" width="24.33" height="6"/><rect class="cls-4" x="63.88" y="55.33" width="24.33" height="6"/><rect class="cls-4" x="63.88" y="67.67" width="24.33" height="6"/><rect class="cls-4" x="63.88" y="80" width="24.33" height="6"/><rect class="cls-4" x="63.88" y="92.33" width="24.33" height="6"/><rect class="cls-4" x="63.88" y="104.67" width="24.33" height="6"/><rect class="cls-4" x="63.88" y="117" width="24.33" height="6"/><rect class="cls-4" x="63.88" y="129.33" width="24.33" height="6"/><rect class="cls-3" x="26.22" y="44.5" width="62" height="3"/><rect class="cls-3" x="26.22" y="59.83" width="24.33" height="3"/><rect class="cls-3" x="63.88" y="59.83" width="24.33" height="3"/><rect class="cls-3" x="26.22" y="72.17" width="24.33" height="3"/><rect class="cls-3" x="63.88" y="72.17" width="24.33" height="3"/><rect class="cls-3" x="26.22" y="84.5" width="24.33" height="3"/><rect class="cls-3" x="63.88" y="84.5" width="24.33" height="3"/><rect class="cls-3" x="26.22" y="96.83" width="24.33" height="3"/><rect class="cls-3" x="63.88" y="96.83" width="24.33" height="3"/><rect class="cls-3" x="26.22" y="109.17" width="24.33" height="3"/><rect class="cls-3" x="63.88" y="109.17" width="24.33" height="3"/><rect class="cls-3" x="26.22" y="121.5" width="24.33" height="3"/><rect class="cls-3" x="63.88" y="121.5" width="24.33" height="3"/><rect class="cls-3" x="26.22" y="133.83" width="24.33" height="3"/><rect class="cls-3" x="34.72" y="144.83" width="44.99" height="3"/><rect class="cls-3" x="63.88" y="133.83" width="24.33" height="3"/><rect class="cls-3" x="55.72" y="146.33" width="3" height="13.04"/><rect class="cls-3" x="39.09" y="146.33" width="3" height="13.04"/><rect class="cls-3" x="72.42" y="146.33" width="3" height="13.04"/><path class="cls-3" d="M89.72,160.88h-65V37.25h65Zm-62-3h59V40.25h-59Z"/><rect class="cls-3" x="159.89" y="132.45" width="3" height="28.4"/><ellipse class="cls-2" cx="161.39" cy="121.03" rx="8.35" ry="11.89"/><path class="cls-3" d="M161.39,134.43c-5.42,0-9.84-6-9.84-13.4s4.42-13.39,9.84-13.39,9.85,6,9.85,13.39S166.82,134.43,161.39,134.43Zm0-23.79c-3.71,0-6.84,4.76-6.84,10.39s3.13,10.4,6.84,10.4,6.85-4.76,6.85-10.4S165.11,110.64,161.39,110.64Z"/><path class="cls-2" d="M30.72,159.38a4.47,4.47,0,0,0-4.43-3.95,4.67,4.67,0,0,0-.76.07,8.92,8.92,0,0,0-16.74-3.23c-.24,0-.47,0-.71,0a6.58,6.58,0,0,0-6.58,6.58,5.44,5.44,0,0,0,0,.57Z"/><path class="cls-3" d="M32.4,160.88H.15L0,159.5q0-.34,0-.69a8.1,8.1,0,0,1,8-8.08A10.42,10.42,0,0,1,26.77,154a6,6,0,0,1,5.44,5.26Zm-29.31-3H28.46a3,3,0,0,0-2.68-.9l-1.57.27L24,155.66A7.42,7.42,0,0,0,10.11,153l-.48.89-1-.11-.54,0A5.09,5.09,0,0,0,3.09,157.88Z"/><path class="cls-2" d="M167.66,159.38a4.47,4.47,0,0,0-4.43-3.95,4.67,4.67,0,0,0-.76.07,8.92,8.92,0,0,0-16.74-3.23c-.24,0-.47,0-.71,0a6.58,6.58,0,0,0-6.58,6.58,5.44,5.44,0,0,0,0,.57Z"/><path class="cls-3" d="M169.34,160.88H137.09L137,159.5c0-.23,0-.46,0-.69a8.1,8.1,0,0,1,8-8.08A10.42,10.42,0,0,1,163.71,154a6,6,0,0,1,5.44,5.26Zm-29.31-3H165.4a3,3,0,0,0-2.68-.9l-1.57.27-.17-1.59A7.42,7.42,0,0,0,147.05,153l-.48.89-1-.11-.54,0A5.09,5.09,0,0,0,140,157.88Z"/></g></g></svg>