<svg xmlns="http://www.w3.org/2000/svg" xmlns:xlink="http://www.w3.org/1999/xlink" viewBox="0 0 177.66 182.34"><defs><style>.cls-1{fill:none;}.cls-2{clip-path:url(#clip-path);}.cls-3{fill:#f5f8ff;}.cls-4{fill:#0e2443;}.cls-5{fill:#cfe1ff;}.cls-6{fill:#a0c4ff;}.cls-7{fill:#80b1ff;}</style><clipPath id="clip-path"><circle class="cls-1" cx="88.83" cy="88.83" r="88.83" transform="translate(-36.79 88.83) rotate(-45)"/></clipPath></defs><g id="Layer_2" data-name="Layer 2"><g id="OBJECTS"><g class="cls-2"><circle class="cls-3" cx="88.83" cy="88.83" r="88.83" transform="translate(-36.79 88.83) rotate(-45)"/><circle class="cls-4" cx="88.83" cy="74.62" r="38.78" transform="translate(-4.2 143.93) rotate(-76.72)"/><circle class="cls-4" cx="88.83" cy="36.96" r="21.32"/><path class="cls-5" d="M148.58,167.24c0,20.14-119.5,20.14-119.5,0s47.15-28,59.75-28S148.58,147.09,148.58,167.24Z"/><path class="cls-6" d="M88.83,149.62h0A10.59,10.59,0,0,1,78.24,139V114.92H99.41V139A10.59,10.59,0,0,1,88.83,149.62Z"/><path class="cls-7" d="M99.41,132.84v-9.23H78.24v9.23a28.22,28.22,0,0,0,21.17,0Z"/><rect class="cls-6" x="60.61" y="44.18" width="56.43" height="84.06" rx="28.21"/><circle class="cls-6" cx="57.77" cy="96.7" r="7.72" transform="translate(-49.62 130.71) rotate(-76.72)"/><path class="cls-4" d="M52.26,97.2a.5.5,0,0,1-.5-.5,6,6,0,0,1,6-6,.5.5,0,1,1,0,1,5,5,0,0,0-5,5A.5.5,0,0,1,52.26,97.2Z"/><circle class="cls-6" cx="119.89" cy="96.7" r="7.72" transform="translate(-15.33 170.46) rotate(-67.5)"/><path class="cls-4" d="M125.4,97.2a.5.5,0,0,1-.5-.5,5,5,0,0,0-5-5,.5.5,0,1,1,0-1,6,6,0,0,1,6,6A.5.5,0,0,1,125.4,97.2Z"/><path class="cls-6" d="M76,55.34a26.61,26.61,0,0,0,7.73,19.28l.84-.57A25.73,25.73,0,0,1,77,55.36C77,54.49,76,54.44,76,55.34Z"/><path class="cls-4" d="M57.77,105.58c0,1.52-1.24,1.59-2.76,1.59s-2.75-.07-2.75-1.59,1.23-3.92,2.75-3.92S57.77,104.06,57.77,105.58Z"/><path class="cls-4" d="M119.89,105.58c0,1.52,1.23,1.59,2.75,1.59s2.76-.07,2.76-1.59-1.24-3.92-2.76-3.92S119.89,104.06,119.89,105.58Z"/><ellipse class="cls-4" cx="88.82" cy="64.65" rx="28.22" ry="21.41"/></g></g></g></svg>