<svg xmlns="http://www.w3.org/2000/svg" xmlns:xlink="http://www.w3.org/1999/xlink" viewBox="0 0 178.16 182.84"><defs><style>.cls-1{fill:none;}.cls-1,.cls-3,.cls-4,.cls-5,.cls-6,.cls-2{clip-path:url(#clip-path);}.cls-3{fill:#f5f8ff;}.cls-4{fill:#cfe1ff;}.cls-5{fill:#a0c4ff;}.cls-6{fill:#80b1ff;}.cls-7{fill:#0e2443;}</style><clipPath id="clip-path"><circle class="cls-1" cx="89.08" cy="89.08" r="88.83" transform="translate(-36.9 89.08) rotate(-45)"/></clipPath></defs><g id="Layer_2" data-name="Layer 2"><g id="OBJECTS"><g class="cls-2"><circle class="cls-3" cx="89.08" cy="89.08" r="88.83" transform="translate(-36.9 89.08) rotate(-45)"/><path class="cls-4" d="M148.83,167.49c0,20.14-119.5,20.14-119.5,0s47.15-28,59.75-28S148.83,147.34,148.83,167.49Z"/><path class="cls-5" d="M89.08,149.87h0a10.59,10.59,0,0,1-10.59-10.59V115.17H99.66v24.11A10.59,10.59,0,0,1,89.08,149.87Z"/><path class="cls-6" d="M99.66,133.09v-9.23H78.49v9.23a28.22,28.22,0,0,0,21.17,0Z"/><rect class="cls-5" x="60.86" y="48.81" width="56.43" height="78.83" rx="28.21"/><circle class="cls-5" cx="58.02" cy="96.95" r="7.72"/><path class="cls-7" d="M52.51,97.45A.5.5,0,0,1,52,97a6,6,0,0,1,6-6,.5.5,0,1,1,0,1,5,5,0,0,0-5,5A.5.5,0,0,1,52.51,97.45Z"/><circle class="cls-5" cx="120.14" cy="96.95" r="7.72"/><path class="cls-7" d="M125.65,97.45a.5.5,0,0,1-.5-.5,5,5,0,0,0-5-5,.5.5,0,1,1,0-1,6,6,0,0,1,6,6A.5.5,0,0,1,125.65,97.45Z"/><path class="cls-7" d="M120.14,58.58c8.76-2.67-1-13.1-17.8-11.74,3.89-13.54-37.36-7.41-42,10.56-1.64-7.33-11.88-2.3-5.51,3.86-9.23-2.44-8.86,9.28-.26,7.65-1.8,9.55.56,20.24,6.25,21.06,6.36.92,4.88-24.41,4.88-24.41s18,12.4,27.2,12.22,6.27-5.71,6.27-5.71a89.35,89.35,0,0,0,13.25,2.42c.18,7.19,1.18,16,5,15.48,4.88-.71,7.31-8.66,6.76-16.94C127.12,71,127,66.72,120.14,58.58Z"/></g><circle class="cls-1" cx="89.08" cy="89.08" r="88.83" transform="translate(-36.9 89.08) rotate(-45)"/></g></g></svg>